<?xml version="1.0" encoding="utf-8"?>
<!-- Generator: Adobe Illustrator 23.0.1, SVG Export Plug-In . SVG Version: 6.00 Build 0)  -->
<svg version="1.1" id="Layer_1" xmlns="http://www.w3.org/2000/svg" xmlns:xlink="http://www.w3.org/1999/xlink" x="0px" y="0px"
	 viewBox="0 0 960.8 806.5" style="enable-background:new 0 0 960.8 806.5;" xml:space="preserve">
<style type="text/css">
	.st0{fill:#FFFFFF;}
</style>
<title>Barmer Logo</title>
<path class="st0" d="M960.8,591.6c0,0.8,0,1.6-0.1,2.4c0,11.9-1.2,23.7-3.4,35.3c-0.2,1.6-0.5,3.2-0.9,4.8
	c-6.7,33.7-21.5,65.2-43,91.8c-1.2,1.7-2.5,3.3-3.9,4.8c-11.4,13.4-24.3,25.3-38.6,35.4c-2.2,1.7-4.6,3.3-7,4.8
	c-2,1.3-4.1,2.7-6.2,4c-2.5,1.5-5,3-7.5,4.4l0,0c-0.1,0-0.2,0.1-0.3,0.1c-1.2,0.7-2.4,1.3-3.7,2s-2.6,1.4-4,2.1l-3.2,1.6
	c-1.6,0.8-3.2,1.5-4.8,2.2c-3.8,1.8-7.7,3.3-11.5,4.8c-3.4,1.3-6.9,2.6-10.4,3.7l-3.3,1c-2.9,0.9-5.8,1.8-8.8,2.5
	c-1.4,0.4-2.9,0.8-4.3,1.1s-2.6,0.6-4,0.9c-3.1,0.7-6.3,1.3-9.5,1.8c-2.1,0.4-4.1,0.8-6.2,1c-2.9,0.5-5.8,0.8-8.6,1
	c-7.2,0.8-14.4,1.2-21.6,1.2h-19.5c-0.1,0-0.1,0-0.2-0.1l-0.1,0.1H303.3c-49.5,0-98.3-12.1-142.1-35.4c-2.9-1.5-5.8-3.2-8.6-4.8
	c-17.6-10.1-34.2-21.9-49.4-35.4c-1.8-1.5-3.6-3.2-5.4-4.8c-6.1-5.6-12-11.4-17.5-17.5c-1.7-1.8-3.3-3.6-4.8-5.4
	c-13.4-15.2-25.3-31.8-35.4-49.4c-1.6-2.8-3.3-5.8-4.8-8.7c-8.7-16.3-15.8-33.4-21.4-51c-0.5-1.5-1-3.2-1.4-4.8
	C4.1,561.3-0.1,532.3,0,503.1V37.8C0,16.9,16.9,0,37.8,0c20.9,0,37.8,16.9,37.8,37.8v465.4c0,15.7,1.6,31.3,4.9,46.7
	c2.8,13.5,6.9,26.7,12.1,39.4c0.6,1.6,1.3,3.2,2,4.8c5.4,12.5,11.9,24.4,19.5,35.6l3.2,4.5c33.2,47.1,83.1,80,139.5,91.8
	c15.3,3.2,31,4.8,46.6,4.8h422.8l-0.1,0.1c0.1,0,0.2-0.1,0.3-0.1H746c5.7,0,11.5-0.4,17.2-1.2c3.2-0.3,6.4-0.8,9.6-1.5
	c1.9-0.3,3.9-0.7,5.8-1.3c1.2-0.2,2.5-0.5,3.7-0.9c15.9-4.3,30.9-11.3,44.4-20.8c2.5-1.8,4.9-3.7,7.2-5.5c21-17,36.6-39.7,44.9-65.5
	c0.5-1.6,1-3.2,1.4-4.8c3.3-11.5,5.1-23.4,5.2-35.3c0.1-0.8,0.1-1.6,0.1-2.4c0-0.8,0-1.6-0.1-2.4c-0.1-12-1.9-23.9-5.2-35.4
	c-0.4-1.6-0.9-3.3-1.4-4.8c-2.7-8.2-6.1-16.1-10.2-23.7c-1.5-2.6-3-5.2-4.5-7.7c-9.4-15-21.5-28-35.8-38.5c-1.6-1.2-3.3-2.3-4.9-3.5
	c-11.4-7.6-23.8-13.5-36.8-17.5l-4.2-1.2c-0.2-0.1-0.4-0.1-0.7-0.2c-6-1.6-12.2-2.8-18.3-3.5c-5.7-0.7-11.4-1.1-17.2-1.1H303.3
	c-7.4,0-14.7,1.6-21.3,4.8c-13.1,6.1-23,17.5-27.2,31.4c-3,9.5-3,19.6,0,29.1c6.4,21.4,26.1,36.1,48.5,36.2H746
	c13.5,0,25.9,7.2,32.6,18.9c1.6,2.6,2.8,5.3,3.7,8.2c0.8,2.7,1.3,5.4,1.4,8.2c0.1,0.8,0.1,1.6,0.1,2.4c0,0.8,0,1.6-0.1,2.4
	c-1.3,19.9-17.8,35.3-37.7,35.3H534.6c-0.1-0.1-0.2-0.1-0.2-0.2c-0.1,0.1-0.1,0.2-0.2,0.2H303.3c-32.6,0-64-12.6-87.4-35.3
	c-1.6-1.5-3.2-3.1-4.8-4.8c-9.8-10.4-17.7-22.4-23.4-35.4c-0.7-1.5-1.3-3.2-1.9-4.8c-2.9-7.3-5.1-14.9-6.5-22.7
	c-1.5-7.7-2.2-15.4-2.2-23.2c0-7.8,0.7-15.6,2.2-23.3c1.4-7.8,3.6-15.3,6.5-22.7c0.6-1.6,1.2-3.2,2-4.8c5.7-13.1,13.6-25,23.3-35.4
	c1.6-1.8,3.2-3.3,4.8-4.8c23.4-22.7,54.8-35.4,87.4-35.3H746c1.1,0,2.1,0,3.2,0.1c6.1,0,12.1,0.4,18,0.9c0.2,0,0.4,0,0.5,0.1
	c1.6,0.1,3.1,0.3,4.7,0.6c13.1,1.5,26.1,4.3,38.6,8.3c1.7,0.5,3.5,1.1,5.3,1.8c13.9,4.7,27.2,10.9,39.8,18.5
	c1.8,1.2,3.7,2.2,5.4,3.5c0.8,0.4,1.6,1,2.4,1.5c2.4,1.5,4.8,3.1,7,4.8c14.3,10.2,27.3,22.1,38.6,35.4c1.4,1.5,2.8,3.1,4,4.8
	c0.4,0.5,0.8,0.9,1.1,1.4c1.8,2.3,3.6,4.6,5.3,7l0,0c2.3,3.1,4.4,6.2,6.5,9.3s4.1,6.4,6,9.7c1,1.7,2,3.5,2.9,5.2
	c1.8,3.3,3.5,6.6,5.1,9.9c1.3,2.7,2.5,5.4,3.6,8.1c0.6,1.3,1.1,2.5,1.6,3.8c0.1,0.2,0.2,0.3,0.2,0.5c0.8,1.8,1.4,3.6,2.1,5.5
	c0.1,0.2,0.1,0.3,0.2,0.5c0.7,1.8,1.2,3.5,1.8,5.3c0.5,1.5,1,3,1.5,4.5c0.3,1.1,0.7,2.2,1,3.3s0.7,2.3,0.9,3.4
	c1.3,4.8,2.5,9.6,3.4,14.5c0.4,1.6,0.7,3.2,0.9,4.8c2.2,11.7,3.3,23.5,3.4,35.4C960.8,590,960.8,590.8,960.8,591.6z"/>
</svg>
